# xmcd
#
# Track frame offsets: 
#        150
#        15603
#        41254
#        55844
#        66440
#        97868
#        112487
#        121452
#        137016
#        145663
#        173188
#
# Disc length: 2551 seconds
#
# Revision: 0
# Processed by: cddbd v1.5.2PL0 Copyright (c) Steve Scherf et al.
# Submitted via: ExactAudioCopy v1.2
#
DISCID=9909f50b
DTITLE=Bill Wilson - Stand Up!
DYEAR=2018
DGENRE=Soul
TTITLE0=Magical Ride
TTITLE1=You Can Count on Me
TTITLE2=All I Need Is Love
TTITLE3=Take Me to the Sky
TTITLE4=When You Look
TTITLE5=Stand Up!
TTITLE6=Thanking You
TTITLE7=I Wonder
TTITLE8=What Did You Think?
TTITLE9=Improvisation
TTITLE10=Smile
EXTD=
EXTT0=
EXTT1=
EXTT2=
EXTT3=
EXTT4=
EXTT5=
EXTT6=
EXTT7=
EXTT8=
EXTT9=
EXTT10=
PLAYORDER=
